<svg version="1.2" xmlns="http://www.w3.org/2000/svg" viewBox="0 0 89 89" width="89" height="89"><defs><clipPath clipPathUnits="userSpaceOnUse" id="cp1"><path d="m-1002-4414h1440v4774h-1440z"/></clipPath><filter x="-50%" y="-50%" width="200%" height="200%" id="f1" ><feDropShadow dx="-1.2246467991473532e-16" dy="2" stdDeviation="9.583333333333334" flood-color="#000000" flood-opacity=".1"/></filter></defs><style>.a{filter:url(#f1);fill:#fff}.b{fill:#080809}</style><g clip-path="url(#cp1)"><path class="a" d="m44.5 63c11.3 0 20.5-9.2 20.5-20.5 0-11.3-9.2-20.5-20.5-20.5-11.3 0-20.5 9.2-20.5 20.5 0 11.3 9.2 20.5 20.5 20.5z"/><path class="b" d="m47.1 40.2c-0.3-0.1-0.7-0.1-1-0.1-0.4 0-1.3 0.3-1.3 0.8v1.4h2.1v2.2h-2.1v6.2h-2.2v-6.2h-1v-2.2h1v-1.2c0-1.7 0.8-3.1 2.5-3.1 0.6 0 1.7 0 2.3 0.3z"/></g></svg>