<svg version="1.2" xmlns="http://www.w3.org/2000/svg" viewBox="0 0 16 16" width="16" height="16"><defs><clipPath clipPathUnits="userSpaceOnUse" id="cp1"><path d="m-832-2838h1440v4774h-1440z"/></clipPath></defs><style>.a{fill:#84829a}</style><g clip-path="url(#cp1)"><path fill-rule="evenodd" class="a" d="m0.3 15.5h1.6v-8.8c0-0.2 0.1-0.3 0.2-0.3h3.8v-6.1c0-0.2 0.1-0.3 0.2-0.3h7c0.1 0 0.2 0.1 0.2 0.3v15.2h2.4c0.2 0 0.3 0.1 0.3 0.2 0 0.2-0.1 0.3-0.3 0.3h-15.4c-0.2 0-0.3-0.1-0.3-0.3 0-0.1 0.1-0.2 0.3-0.2zm9-8.8v8.8h0.6v-2.4c0-0.5 0.3-0.8 0.8-0.8h0.5c0.4 0 0.8 0.3 0.8 0.8v2.4h0.8v-15h-6.4v5.9h2.7c0.1 0 0.2 0.1 0.2 0.3zm1.1 8.8h1.1v-2.4c0-0.2-0.2-0.3-0.3-0.3h-0.5c-0.2 0-0.3 0.1-0.3 0.3zm-8 0h6.4v-8.6h-6.4z"/><path fill-rule="evenodd" class="a" d="m7.5 3.7h1.6c0.1 0 0.2 0.2 0.2 0.3v1.6c0 0.1-0.1 0.3-0.2 0.3h-1.6c-0.2 0-0.3-0.2-0.3-0.3v-1.6c0-0.1 0.1-0.3 0.3-0.3zm0.2 1.6h1.1v-1h-1.1z"/><path fill-rule="evenodd" class="a" d="m7.5 1.1h1.6c0.1 0 0.2 0.1 0.2 0.2v1.6c0 0.2-0.1 0.3-0.2 0.3h-1.6c-0.2 0-0.3-0.1-0.3-0.3v-1.6c0-0.1 0.1-0.2 0.3-0.2zm0.2 1.6h1.1v-1.1h-1.1z"/><path fill-rule="evenodd" class="a" d="m10.1 3.7h1.6c0.2 0 0.3 0.2 0.3 0.3v1.6c0 0.1-0.1 0.3-0.3 0.3h-1.6c-0.1 0-0.2-0.2-0.2-0.3v-1.6c0-0.1 0.1-0.3 0.2-0.3zm0.3 1.6h1.1v-1h-1.1z"/><path fill-rule="evenodd" class="a" d="m10.1 1.1h1.6c0.2 0 0.3 0.1 0.3 0.2v1.6c0 0.2-0.1 0.3-0.3 0.3h-1.6c-0.1 0-0.2-0.1-0.2-0.3v-1.6c0-0.1 0.1-0.2 0.2-0.2zm0.3 1.6h1.1v-1.1h-1.1z"/><path fill-rule="evenodd" class="a" d="m10.1 6.4h1.6c0.2 0 0.3 0.1 0.3 0.3v1.6c0 0.1-0.1 0.2-0.3 0.2h-1.6c-0.1 0-0.2-0.1-0.2-0.2v-1.6c0-0.2 0.1-0.3 0.2-0.3zm0.3 1.6h1.1v-1.1h-1.1z"/><path fill-rule="evenodd" class="a" d="m10.1 9.1h1.6c0.2 0 0.3 0.1 0.3 0.2v1.6c0 0.2-0.1 0.3-0.3 0.3h-1.6c-0.1 0-0.2-0.1-0.2-0.3v-1.6c0-0.1 0.1-0.2 0.2-0.2zm0.3 1.6h1.1v-1.1h-1.1z"/><path fill-rule="evenodd" class="a" d="m5.1 12.3h-1.6c-0.2 0-0.3-0.2-0.3-0.3v-1.6c0-0.1 0.1-0.3 0.3-0.3h1.6c0.1 0 0.2 0.2 0.2 0.3v1.6c0 0.1-0.1 0.3-0.2 0.3zm-0.3-1.6h-1.1v1h1.1z"/><path fill-rule="evenodd" class="a" d="m5.1 9.6h-1.6c-0.2 0-0.3-0.1-0.3-0.3v-1.6c0-0.1 0.1-0.2 0.3-0.2h1.6c0.1 0 0.2 0.1 0.2 0.2v1.6c0 0.2-0.1 0.3-0.2 0.3zm-0.3-1.6h-1.1v1.1h1.1z"/><path fill-rule="evenodd" class="a" d="m5.1 14.9h-1.6c-0.2 0-0.3-0.1-0.3-0.2v-1.6c0-0.2 0.1-0.3 0.3-0.3h1.6c0.1 0 0.2 0.1 0.2 0.3v1.6c0 0.1-0.1 0.2-0.2 0.2zm-0.3-1.6h-1.1v1.1h1.1z"/><path fill-rule="evenodd" class="a" d="m7.7 12.3h-1.6c-0.1 0-0.2-0.2-0.2-0.3v-1.6c0-0.1 0.1-0.3 0.2-0.3h1.6c0.2 0 0.3 0.2 0.3 0.3v1.6c0 0.1-0.1 0.3-0.3 0.3zm-0.2-1.6h-1.1v1h1.1z"/><path fill-rule="evenodd" class="a" d="m7.7 9.6h-1.6c-0.1 0-0.2-0.1-0.2-0.3v-1.6c0-0.1 0.1-0.2 0.2-0.2h1.6c0.2 0 0.3 0.1 0.3 0.2v1.6c0 0.2-0.1 0.3-0.3 0.3zm-0.2-1.6h-1.1v1.1h1.1z"/><path fill-rule="evenodd" class="a" d="m7.7 14.9h-1.6c-0.1 0-0.2-0.1-0.2-0.2v-1.6c0-0.2 0.1-0.3 0.2-0.3h1.6c0.2 0 0.3 0.1 0.3 0.3v1.6c0 0.1-0.1 0.2-0.3 0.2zm-0.2-1.6h-1.1v1.1h1.1z"/></g></svg>