<svg version="1.2" xmlns="http://www.w3.org/2000/svg" viewBox="0 0 93 93" width="93" height="93"><defs><clipPath clipPathUnits="userSpaceOnUse" id="cp1"><path d="m-1068-4414h1440v4774h-1440z"/></clipPath><filter x="-50%" y="-50%" width="200%" height="200%" id="f1" ><feDropShadow dx="-1.2246467991473532e-16" dy="2" stdDeviation="9.583333333333334" flood-color="#000000" flood-opacity=".1"/></filter></defs><style>.a{filter:url(#f1);fill:#fff}</style><g clip-path="url(#cp1)"><path class="a" d="m46.5 67c12.4 0 22.5-10.1 22.5-22.5 0-12.4-10.1-22.5-22.5-22.5-12.4 0-22.5 10.1-22.5 22.5 0 12.4 10.1 22.5 22.5 22.5z"/><path fill-rule="evenodd" d="m55 38.3v11.4c0 1.2-1.1 2.3-2.3 2.3h-11.4c-1.2 0-2.3-1.1-2.3-2.3v-11.4c0-1.2 1.1-2.3 2.3-2.3h11.4c1.2 0 2.3 1.1 2.3 2.3zm-0.9 0c0-0.7-0.7-1.4-1.4-1.4h-11.4c-0.7 0-1.4 0.7-1.4 1.4v11.4c0 0.7 0.7 1.4 1.4 1.4h11.4c0.7 0 1.4-0.7 1.4-1.4z"/><path  d="m52.2 37.9c-0.6 0-1 0.4-1 0.9 0 0.6 0.4 1 1 1 0.5 0 0.9-0.4 0.9-1 0-0.5-0.4-0.9-0.9-0.9z"/><path fill-rule="evenodd" d="m51.2 44c0 2.3-1.9 4.2-4.2 4.2-2.3 0-4.2-1.9-4.2-4.2 0-2.3 1.9-4.2 4.2-4.2 2.3 0 4.2 1.9 4.2 4.2zm-0.9 0c0-1.8-1.5-3.3-3.3-3.3-1.8 0-3.3 1.5-3.3 3.3 0 1.8 1.5 3.3 3.3 3.3 1.8 0 3.3-1.5 3.3-3.3z"/></g></svg>