<svg xmlns="http://www.w3.org/2000/svg" width="396.19" height="388.448" viewBox="154.87 3979.231 396.19 388.448"><g data-name="Group 42"><path d="M0 125.94a126.218 126.04 0 1 1 0 .1z" stroke-linejoin="round" stroke-linecap="round" stroke="#6246e5" fill="transparent" transform="matrix(0 .99604 -.99603 0 410.045 4095.484)" data-name="Ellipse 19"/><path d="M0 140.865a141.165 140.965 0 1 1 0 .1z" stroke-linejoin="round" stroke-linecap="round" stroke="#6246e5" fill="transparent" transform="matrix(0 .99646 -.99645 0 438.238 4070.573)" data-name="Ellipse 20"/><path d="M0 154.132a154.45 154.232 0 1 1 0 .1z" stroke-linejoin="round" stroke-linecap="round" stroke="#6246e5" fill="transparent" transform="rotate(90 -1793.35 2255.629) scale(.99676)" data-name="Ellipse 21"/><path d="M0 165.741a166.076 165.841 0 1 1 0 .1z" stroke-linejoin="round" stroke-linecap="round" stroke="#6246e5" fill="transparent" transform="matrix(0 .99699 -.99699 0 489.65 4029.054)" data-name="Ellipse 22"/><path d="M0 176.936a177.286 177.036 0 1 1 0 .1z" stroke-linejoin="round" stroke-linecap="round" stroke="#6246e5" fill="transparent" transform="rotate(90 -1746.886 2263.07) scale(.99718)" data-name="Ellipse 23"/><path d="M0 194.349a194.724 194.449 0 1 1 0 .1z" stroke-linejoin="round" stroke-linecap="round" stroke="#6246e5" fill="transparent" transform="matrix(0 .99743 -.99743 0 551.01 3979.231)" data-name="Ellipse 24"/></g></svg>