<svg version="1.2" xmlns="http://www.w3.org/2000/svg" viewBox="0 0 89 89" width="89" height="89"><defs><clipPath clipPathUnits="userSpaceOnUse" id="cp1"><path d="m-1138-4416h1440v4774h-1440z"/></clipPath><filter x="-50%" y="-50%" width="200%" height="200%" id="f1" ><feDropShadow dx="-1.2246467991473532e-16" dy="2" stdDeviation="9.583333333333334" flood-color="#000000" flood-opacity=".1"/></filter></defs><style>.a{filter:url(#f1);fill:#fff}.b{fill:#080809}</style><g clip-path="url(#cp1)"><path class="a" d="m44.5 63c11.3 0 20.5-9.2 20.5-20.5 0-11.3-9.2-20.5-20.5-20.5-11.3 0-20.5 9.2-20.5 20.5 0 11.3 9.2 20.5 20.5 20.5z"/><path class="b" d="m52 37.5q-0.9 0.4-1.9 0.6c0.7-0.4 1.2-1.1 1.5-1.9q-1 0.6-2.1 0.8c-0.6-0.6-1.5-1-2.4-1-1.8 0-3.3 1.5-3.3 3.3q0 0.4 0.1 0.7c-2.8-0.1-5.2-1.4-6.8-3.4q-0.4 0.7-0.4 1.7c0 1.1 0.5 2.1 1.4 2.7-0.5 0-1-0.2-1.5-0.4q0 0 0 0c0 1.6 1.2 2.9 2.7 3.2q-0.4 0.1-0.9 0.1-0.3 0-0.6 0c0.4 1.3 1.6 2.2 3.1 2.3-1.2 0.8-2.6 1.4-4.1 1.4q-0.4 0-0.8-0.1c1.5 1 3.2 1.5 5 1.5 6.1 0 9.4-5 9.4-9.3q0-0.3 0-0.5 0.9-0.7 1.6-1.7z"/></g></svg>