<svg version="1.2" xmlns="http://www.w3.org/2000/svg" viewBox="0 0 18 18" width="18" height="18"><defs><clipPath clipPathUnits="userSpaceOnUse" id="cp1"><path d="m-186-2165h1440v4774h-1440z"/></clipPath></defs><style>.a{fill:#080809}</style><g clip-path="url(#cp1)"><path class="a" d="m17.1 1.8l-6.9 15q-0.1 0.2-0.3 0.3-0.2 0.1-0.4 0-0.2 0-0.3-0.2-0.2-0.1-0.2-0.3l-0.6-7-7-0.6q-0.2 0-0.3-0.2-0.2-0.1-0.2-0.3-0.1-0.2 0-0.4 0.1-0.2 0.3-0.3l15-6.9q0.2 0 0.4 0 0.2 0 0.3 0.2 0.2 0.1 0.2 0.3 0 0.2 0 0.4z"/></g></svg>